HIERARCHY
ROOT root
{
	OFFSET	0	13.1	24.9
	CHANNELS 6  Xposition Yposition Zposition Xrotation Yrotation Zrotation
	JOINT spine_1
	{
		OFFSET	0	9.99999	0
		CHANNELS 3  Xrotation Yrotation Zrotation
		JOINT spine_2
		{
			OFFSET	0	112	-10
			CHANNELS 3  Xrotation Yrotation Zrotation
			JOINT spine_3
			{
				OFFSET	0	206.5	19.3
				CHANNELS 3  Xrotation Yrotation Zrotation
				JOINT spine_4
				{
					OFFSET	0	110.4	14.6
					CHANNELS 3  Xrotation Yrotation Zrotation
					JOINT neck_1
					{
						OFFSET	0	71.8	-50.3
						CHANNELS 3  Xrotation Yrotation Zrotation
						JOINT neck_2
						{
							OFFSET	0	86.2	-25.8
							CHANNELS 3  Xrotation Yrotation Zrotation
							JOINT head_ee
							{
								OFFSET	0	179.8	-8.7
								CHANNELS 3  Xrotation Yrotation Zrotation
								End Site
								{
									OFFSET	1	0	0
								}
							}
						}
					}
					JOINT left_clavicle
					{
						OFFSET	-43.2	22.4	-70.8
						CHANNELS 3  Xrotation Yrotation Zrotation
						JOINT left_shoulder
						{
							OFFSET	-93.9	-5.79999	48.7
							CHANNELS 3  Xrotation Yrotation Zrotation
							JOINT left_elbow
							{
								OFFSET	-291.4	-30.8	15.2
								CHANNELS 3  Xrotation Yrotation Zrotation
								JOINT left_lowarm_twist
								{
									OFFSET	-110.7	-3.89999	13.6
									CHANNELS 3  Xrotation Yrotation Zrotation
									JOINT left_hand
									{
										OFFSET	-110.7	-3.89999	13.6
										CHANNELS 3  Xrotation Yrotation Zrotation
										JOINT left_ee
										{
											OFFSET	-80.8	-5.10001	12.1
											CHANNELS 3  Xrotation Yrotation Zrotation
											End Site
											{
												OFFSET	1	0	0
											}
										}
									}
								}
							}
						}
					}
					JOINT right_clavicle
					{
						OFFSET	43.2	22.4	-70.8
						CHANNELS 3  Xrotation Yrotation Zrotation
						JOINT right_shoulder
						{
							OFFSET	93.9	-5.79999	48.7
							CHANNELS 3  Xrotation Yrotation Zrotation
							JOINT right_elbow
							{
								OFFSET	291.4	-30.8	15.2
								CHANNELS 3  Xrotation Yrotation Zrotation
								JOINT right_lowarm_twist
								{
									OFFSET	110.7	-3.89999	13.6
									CHANNELS 3  Xrotation Yrotation Zrotation
									JOINT right_hand
									{
										OFFSET	110.7	-3.89999	13.6
										CHANNELS 3  Xrotation Yrotation Zrotation
										JOINT right_ee
										{
											OFFSET	80.8	-5.10001	12.1
											CHANNELS 3  Xrotation Yrotation Zrotation
											End Site
											{
												OFFSET	1	0	0
											}
										}
									}
								}
							}
						}
					}
				}
			}
		}
	}
	JOINT left_hip
	{
		OFFSET	-82.8	-127.5	0.300001
		CHANNELS 3  Xrotation Yrotation Zrotation
		JOINT left_knee
		{
			OFFSET	-28.2	-396.7	2.2
			CHANNELS 3  Xrotation Yrotation Zrotation
			JOINT left_ankle
			{
				OFFSET	-11.7	-411.3	35.4
				CHANNELS 3  Xrotation Yrotation Zrotation
				JOINT left_toes
				{
					OFFSET	0	-60	-88.6
					CHANNELS 3  Xrotation Yrotation Zrotation
					JOINT left_foot_ee
					{
						OFFSET	-22.5	-16.5	-42.2
						CHANNELS 3  Xrotation Yrotation Zrotation
						End Site
						{
							OFFSET	1	0	0
						}
					}
				}
			}
		}
	}
	JOINT right_hip
	{
		OFFSET	82.8	-127.5	0.300001
		CHANNELS 3  Xrotation Yrotation Zrotation
		JOINT right_knee
		{
			OFFSET	28.2	-396.7	2.2
			CHANNELS 3  Xrotation Yrotation Zrotation
			JOINT right_ankle
			{
				OFFSET	11.7	-411.3	35.4
				CHANNELS 3  Xrotation Yrotation Zrotation
				JOINT right_toes
				{
					OFFSET	0	-60	-88.6
					CHANNELS 3  Xrotation Yrotation Zrotation
					JOINT right_foot_ee
					{
						OFFSET	22.5	-16.5	-42.2
						CHANNELS 3  Xrotation Yrotation Zrotation
						End Site
						{
							OFFSET	1	0	0
						}
					}
				}
			}
		}
	}
}
MOTION
Frames: 15
Frame Time: 0.02
3171.01 759.594 -630.063 -177.016 -74.925 178.471 1.0812 0.377495 1.34199 1.08215 0.291344 1.36329 1.0894 0.0248455 1.39384 1.08677 0.244644 1.37243 -9.25704 14.9099 4.51107 -9.36908 24.9451 8.0128 -0.0 0.0 -0.0 3.79849 11.6067 7.79074 -34.6314 -25.5703 63.1776 0.564274 -15.6171 0.0773825 -82.9167 -8.19055 5.23098 -1.13974 15.375 -0.762645 -0.0 0.0 -0.0 4.35282 3.91133 -8.21012 -7.03421 32.278 -60.6781 2.11853 46.3767 -0.907578 6.8401 -0.190295 0.852498 2.51544 -27.3513 -25.511 0.0 0.0 0.0 18.1974 0.739753 -0.228206 -25.6551 0.185816 3.89986 1.73644 26.0597 -0.265625 18.5332 -0.0 -0.0 -0.0 0.0 -0.0 15.8781 6.73452 0.777812 -11.3724 -0.298681 -1.71687 1.23828 15.3241 0.197283 -8.40644 0.0 0.0 0.0 0.0 0.0 
3173.1 759.01 -629.517 -173.717 -75.5691 -177.698 1.16503 0.231414 1.33172 1.16601 0.146212 1.34374 1.16966 -0.11201 1.34703 1.16714 0.102113 1.34781 -8.75155 15.0248 4.2938 -8.8381 25.2175 7.72132 -0.0 0.0 -0.0 3.91739 11.4909 7.99035 -34.2291 -25.9327 63.9402 0.550192 -15.2458 0.0736355 -82.8227 -8.1787 5.23285 -1.05679 14.8222 -0.494048 -0.0 0.0 -0.0 4.54035 3.46256 -8.60873 -6.74414 32.0894 -61.4404 2.16501 46.9971 -0.9414 6.9326 -0.192168 0.864166 2.44734 -27.0119 -25.016 0.0 0.0 0.0 18.1417 0.509593 -0.820289 -21.8219 0.269544 3.31768 1.30816 25.9146 -0.200146 18.2507 -0.0 -0.0 -0.0 0.0 -0.0 15.7325 6.48021 0.550596 -11.4381 -0.299411 -1.72692 1.24973 15.2791 0.199032 -8.23444 0.0 0.0 0.0 0.0 0.0 
3180.9 758.691 -633.208 -169.327 -75.9589 -173.004 1.1744 0.114675 1.24487 1.17526 0.0352342 1.24965 1.17617 -0.202949 1.23356 1.17405 -0.00559993 1.25013 -8.22712 15.1578 4.07435 -8.28528 25.5227 7.42523 -0.0 0.0 -0.0 3.75938 11.1683 7.71193 -34.0112 -26.276 64.3768 0.540946 -15.0012 0.0712233 -82.6842 -8.16126 5.23556 -0.972953 14.0434 -0.314848 -0.0 0.0 -0.0 4.70056 3.02206 -8.94983 -7.17522 31.8111 -61.8863 2.1705 47.0693 -0.945414 7.00282 -0.193576 0.873026 2.37262 -26.6567 -24.4745 0.0 0.0 0.0 17.4559 0.79925 -1.22936 -19.144 0.304841 2.90834 0.407054 25.8908 -0.0623962 17.8502 -0.0 -0.0 -0.0 0.0 -0.0 16.092 6.27273 0.32838 -11.1429 -0.296043 -1.68175 1.31294 15.286 0.209072 -8.11669 0.0 0.0 0.0 0.0 0.0 
3185.95 762.673 -631.322 -167.605 -76.0395 -170.984 1.14365 0.0383697 1.20362 1.14445 -0.0382916 1.20362 1.14376 -0.267062 1.17424 1.14184 -0.0782747 1.20168 -7.84839 15.2384 3.87347 -7.8855 25.7444 7.16454 -0.0 0.0 -0.0 3.65733 10.9533 7.53064 -33.7903 -26.5397 64.7341 0.534812 -14.8387 0.069644 -82.5867 -8.14898 5.23744 -0.908391 13.4435 -0.173269 -0.0 0.0 -0.0 4.56393 2.51525 -8.70157 -8.0617 31.3731 -61.8422 2.16704 47.0237 -0.942879 7.05229 -0.194562 0.879268 2.32022 -26.4096 -24.0941 0.0 0.0 0.0 16.8547 1.01333 -1.4854 -17.1125 0.318838 2.59697 -0.298225 25.9442 0.0457974 17.5374 -0.0 -0.0 -0.0 0.0 -0.0 16.3883 6.11762 0.115783 -10.9265 -0.293427 -1.64865 1.38196 15.3362 0.220105 -8.02106 0.0 0.0 0.0 0.0 0.0 
3198.9 756.993 -635.474 -167.098 -76.1841 -170.641 1.11574 -0.00171819 1.1374 1.11646 -0.0740856 1.13499 1.11508 -0.289668 1.0999 1.11341 -0.112336 1.13184 -7.48504 15.2256 3.53131 -7.50297 25.8946 6.74609 -0.0 0.0 -0.0 3.18852 11.3753 6.7451 -33.4246 -27.2002 66.6286 0.544377 -15.092 0.072114 -82.6403 -8.15573 5.23641 -0.761617 11.736 0.0117447 -0.0 0.0 -0.0 4.32239 2.18512 -8.23892 -8.58342 31.1486 -62.8592 2.17053 47.0698 -0.945439 7.06906 -0.194895 0.881384 2.2764 -25.9886 -23.7265 0.0 0.0 0.0 16.4311 1.31279 -1.71836 -15.252 0.321965 2.31154 -4.14834 26.2002 0.642773 16.4692 -0.0 -0.0 -0.0 0.0 -0.0 15.9699 5.95438 0.183726 -11.2108 -0.296838 -1.69213 1.52351 15.3642 0.242603 -7.9432 0.0 0.0 0.0 0.0 0.0 
3201.23 762.543 -633.885 -164.658 -75.384 -167.868 1.34443 -0.027322 1.07068 1.34506 -0.0953927 1.06677 1.34332 -0.293441 1.03005 1.34186 -0.127092 1.06346 -6.72264 15.3196 3.20324 -6.69052 26.1642 6.27389 -0.0 0.0 -0.0 2.90687 10.5493 6.22593 -32.3857 -27.6529 66.4781 0.565994 -15.6624 0.0778464 -82.6295 -8.15437 5.23662 -0.642886 10.3119 0.155779 -0.0 0.0 -0.0 4.05831 1.97521 -7.72828 -9.00593 30.9746 -63.4163 2.17288 47.1006 -0.947153 7.08424 -0.195196 0.8833 2.25453 -25.4326 -23.4615 0.0 0.0 0.0 15.9334 1.56692 -1.82996 -13.8115 0.318021 2.09058 -6.86144 27.0307 1.073 15.7214 -0.0 -0.0 -0.0 0.0 -0.0 15.7071 5.80203 0.0176647 -11.4084 -0.299083 -1.72237 2.03001 15.4127 0.322899 -7.77131 0.0 0.0 0.0 0.0 0.0 
3208.31 761.789 -632.928 -165.525 -75.0391 -168.403 1.34704 -0.0386987 1.0198 1.34762 -0.103509 1.01527 1.34581 -0.291728 0.977953 1.3445 -0.133626 1.01175 -6.19461 15.368 2.98895 -6.1259 26.3114 5.954 -0.0 0.0 -0.0 2.59674 9.98165 5.66089 -31.4625 -28.1258 66.7246 0.580846 -16.0525 0.0819044 -82.6545 -8.15753 5.23614 -0.552929 9.17804 0.248646 -0.0 0.0 -0.0 4.19915 1.78374 -8.01585 -9.25544 30.8621 -63.8861 2.17352 47.1091 -0.947629 7.12547 -0.196011 0.888503 2.22726 -24.9637 -23.1799 0.0 0.0 0.0 15.7179 1.32101 -1.82427 -12.7052 0.311221 1.92097 -8.76752 27.5547 1.37911 15.1972 -0.0 -0.0 -0.0 0.0 -0.0 15.5003 5.63822 -0.379758 -11.4124 -0.299127 -1.72299 2.39028 15.4517 0.379912 -7.64589 0.0 0.0 0.0 0.0 0.0 
3214.08 760.61 -634.373 -164.146 -74.844 -166.964 1.3429 -0.0339894 1.04749 1.3435 -0.100571 1.0432 1.3417 -0.294144 1.00592 1.34031 -0.131595 1.03975 -5.82912 15.4264 2.91714 -5.73363 26.404 5.81306 -0.0 0.0 -0.0 2.3598 9.90432 5.24644 -31.2156 -28.4247 67.0834 0.591135 -16.3218 0.084773 -82.703 -8.16363 5.23519 -0.483742 8.28705 0.315999 -0.0 0.0 -0.0 4.10703 1.54112 -7.84702 -10.1914 30.5878 -63.911 2.15817 46.9067 -0.936401 7.19546 -0.197385 0.897338 2.2093 -24.6178 -22.9839 0.0 0.0 0.0 15.5354 1.14275 -1.90629 -11.9289 0.304495 1.80206 -10.0865 27.9177 1.5928 14.8777 -0.0 -0.0 -0.0 0.0 -0.0 15.3577 5.53887 -0.607782 -11.4149 -0.299155 -1.72337 2.64263 15.571 0.420087 -7.52993 0.0 0.0 0.0 0.0 0.0 
3222.8 763.574 -640.534 -163.463 -74.7664 -165.988 1.334 -0.0101491 1.0568 1.33461 -0.0773717 1.05401 1.33323 -0.273527 1.02084 1.33179 -0.108881 1.05123 -5.55961 15.6464 3.35028 -5.43914 26.4423 6.22987 -0.0 0.0 -0.0 2.29565 9.90484 5.13551 -30.8785 -28.7173 67.449 0.607148 -16.7395 0.0893292 -82.8153 -8.17777 5.23299 -0.393017 7.07893 0.392395 -0.0 0.0 -0.0 4.0859 1.20091 -7.82306 -11.6757 30.2665 -63.7861 2.07796 45.8234 -0.878345 7.24498 -0.198351 0.903591 2.19911 -24.3143 -22.8457 0.0 0.0 0.0 15.3004 1.31882 -2.15059 -11.3629 0.298575 1.71541 -11.0119 28.193 1.74382 14.7465 -0.0 -0.0 -0.0 0.0 -0.0 15.3235 5.46472 -0.735336 -10.254 -0.284497 -1.54584 3.21719 16.1366 0.512781 -7.44427 0.0 0.0 0.0 0.0 0.0 
3224.88 759.886 -644.909 -160.544 -74.316 -162.613 1.74899 0.00459418 1.03195 1.74958 -0.061077 1.03015 1.74847 -0.245787 1.00226 1.74708 -0.0844227 1.0285 -3.64847 16.3127 3.80432 -3.37549 26.9279 6.39651 -0.0 0.0 -0.0 2.10197 9.81001 4.79414 -30.5357 -28.9612 67.0453 0.621083 -17.1015 0.0933848 -82.8192 -8.17828 5.23291 -0.199456 5.77742 1.10752 -0.0 0.0 -0.0 4.06067 0.958904 -7.78604 -13.0332 29.8344 -63.3265 1.98024 44.4441 -0.809076 7.29473 -0.199316 0.909873 2.16214 -23.9027 -22.5108 0.0 0.0 0.0 14.755 3.30219 -2.47743 -10.9677 0.293934 1.65495 -11.6458 28.2539 1.84624 14.6524 -0.0 -0.0 -0.0 0.0 -0.0 15.299 5.15226 -0.658156 -7.62695 -0.23807 -1.14544 4.02548 16.562 0.642148 -7.49486 0.0 0.0 0.0 0.0 0.0 
3236.69 765.162 -645.952 -158.18 -73.4244 -160.109 2.03104 0.0252387 1.01229 2.03161 -0.0392238 1.01184 2.03086 -0.216115 0.989276 2.0295 -0.0571731 1.01099 -2.72332 16.5799 4.02366 -2.37811 27.0351 6.47237 -0.0 0.0 -0.0 2.20719 9.76091 4.97296 -30.1032 -29.1575 66.7637 0.626575 -17.2438 0.0950063 -82.7463 -8.16909 5.23435 -0.0428272 4.88195 1.76099 -0.0 0.0 -0.0 4.14922 0.786691 -7.96776 -14.8874 29.939 -63.7867 1.91193 43.4396 -0.761674 7.31185 -0.199647 0.912034 2.14403 -23.6178 -22.3249 0.0 0.0 0.0 14.5254 4.85568 -2.16587 -10.4368 0.287044 1.57378 -12.255 29.418 1.95862 14.4954 -0.0 -0.0 -0.0 0.0 -0.0 14.9534 5.28081 -0.930856 -5.92111 -0.198109 -0.886719 4.70393 16.8797 0.750644 -7.3644 0.0 0.0 0.0 0.0 0.0 
3250.04 768.357 -643.949 -160.243 -72.4052 -162.126 2.00935 0.0367457 0.968681 2.00987 -0.0249656 0.969056 2.00941 -0.194924 0.94958 2.00815 -0.0425163 0.968445 -2.32065 16.7095 4.26848 -1.94527 26.9835 6.66458 -0.0 0.0 -0.0 2.03856 9.63469 4.67202 -30.1122 -29.2106 66.0504 0.629081 -17.3086 0.0957506 -82.687 -8.16162 5.2355 0.0664653 4.24491 2.21587 -0.0 0.0 -0.0 4.1946 1.04518 -8.04382 -16.2486 29.9778 -63.7663 1.86301 42.699 -0.728266 7.31964 -0.199797 0.913017 2.12524 -23.4157 -22.1548 0.0 0.0 0.0 14.8017 5.92636 -2.05071 -9.26206 0.269126 1.39442 -12.6728 30.0374 2.03472 14.3584 -0.0 -0.0 -0.0 0.0 -0.0 14.5317 5.34156 -1.61527 -4.66879 -0.163876 -0.697582 5.07151 17.0962 0.809743 -7.3075 0.0 0.0 0.0 0.0 0.0 
3248.28 764.256 -641.761 -158.124 -71.3529 -160.412 2.14307 0.0736919 0.870601 2.1435 0.0181461 0.873525 2.14373 -0.133659 0.863431 2.14269 0.00437623 0.873703 -2.50024 16.4434 4.09207 -2.14796 26.6782 6.4825 -0.0 0.0 -0.0 1.83985 9.44067 4.31284 -29.521 -29.4882 64.55 0.704641 -19.242 0.119448 -82.6568 -8.15781 5.23609 0.139364 3.84399 2.53091 -0.0 0.0 -0.0 4.41346 1.21116 -8.46504 -17.0515 30.1016 -64.1282 1.79543 41.6461 -0.682893 7.25323 -0.198511 0.904631 2.10844 -23.3384 -22.029 0.0 0.0 0.0 13.3876 6.7726 -1.56801 -4.72401 0.165472 0.705907 -12.3255 29.9388 1.97691 14.549 -0.0 -0.0 -0.0 0.0 -0.0 14.7303 5.20878 -1.57324 -3.50176 -0.128256 -0.522024 5.49566 16.1431 0.869505 -7.07494 0.0 0.0 0.0 0.0 0.0 
3248.63 766.265 -643.035 -157.295 -70.8448 -159.651 2.22774 0.136334 0.789201 2.22808 0.08584 0.796276 2.22925 -0.0523897 0.799174 2.22837 0.0744783 0.797419 -2.68469 16.2352 3.95816 -2.35275 26.4452 6.35234 -0.0 0.0 -0.0 1.59589 9.43571 3.88861 -29.1816 -29.6682 63.582 0.762521 -20.693 0.139215 -82.7229 -8.16614 5.2348 0.17423 3.75321 2.72371 -0.0 0.0 -0.0 4.54443 1.06121 -8.72881 -17.4514 29.8407 -64.4563 1.71824 40.3998 -0.632227 7.17527 -0.19699 0.89479 2.07353 -23.3144 -21.8028 0.0 0.0 0.0 12.2957 7.32758 -1.62201 -1.53261 0.0600645 0.227525 -12.0615 29.4576 1.92781 14.6853 -0.0 -0.0 -0.0 0.0 -0.0 14.8871 4.89401 -1.4018 -2.68448 -0.101184 -0.399517 5.7824 15.3257 0.908227 -6.87217 0.0 0.0 0.0 0.0 0.0 
3251.99 762.002 -645.95 -155.938 -70.3646 -158.165 2.43263 0.167865 0.748186 2.43294 0.119917 0.757351 2.43449 -0.00937555 0.766728 2.43368 0.111829 0.758587 -3.05563 16.2 4.18207 -2.75003 26.2929 6.65174 -0.0 0.0 -0.0 1.62411 9.26319 3.92371 -27.8487 -29.934 62.5234 0.818802 -22.0779 0.159739 -82.801 -8.17598 5.23327 0.163681 4.09149 2.79357 -0.0 0.0 -0.0 4.63464 0.941547 -8.91088 -18.2477 29.1684 -64.5308 1.61378 38.6365 -0.565746 7.00561 -0.193632 0.873377 2.01659 -23.4357 -21.4768 0.0 0.0 0.0 11.2994 7.59903 -1.45961 0.714906 -0.0300981 -0.105577 -11.773 28.6271 1.87102 15.0849 -0.0 -0.0 -0.0 0.0 -0.0 15.1377 4.69289 -1.45053 -2.11258 -0.0812014 -0.314023 6.22323 14.7773 0.971995 -6.63113 0.0 0.0 0.0 0.0 0.0 
